# xmcd CD database file
#
# Track frame offsets:
#	183
#	13353
#	24090
#	39263
#	57303
#	68723
#	81740
#	93663
#	104353
#	117970
#	127600
#	140143
#	151628
#	169673
#	185445
#	204010
#	219235
#	231928
#	242423
#	258165
#
# Disc length: 4435 seconds
#
# Revision: 2
# Processed by: cddbd v1.4PL0 Copyright (c) Steve Scherf et al.
# Submitted via: CDex 1.50Beta7
#
DISCID=02115114
DTITLE=Slim Harpo - Hip Shakin' ~ The Excello Collection [CD2]
DYEAR=1994
DGENRE=Blues
TTITLE0=Baby, Scratch My Back
TTITLE1=I'm Gonna Miss You Like the Devil
TTITLE2=Wondering Blues
TTITLE3=Rock Me, Baby
TTITLE4=Shake Your Hips
TTITLE5=Tip On In, part 1
TTITLE6=Tip On In, part 2
TTITLE7=I'm Gonna Keep What I've Got
TTITLE8=I've Got to be with You Tonight
TTITLE9=Te Ni Nee Ni Nu
TTITLE10=Mailbox Blues
TTITLE11=Mohair Sam
TTITLE12=I Just Can't Leave You
TTITLE13=Just for You
TTITLE14=Jody Man
TTITLE15=I've Been a Good Thing for You
TTITLE16=Hey, Little Lee
TTITLE17=My Baby, She's Got It
TTITLE18=I'm So Sorry
TTITLE19=live medley_Moody Blues~I Got Love If You Want It~You Know I Love You
EXTD=YEAR: 1994
EXTT0=
EXTT1=
EXTT2=
EXTT3=
EXTT4=
EXTT5=
EXTT6=
EXTT7=
EXTT8=
EXTT9=
EXTT10=
EXTT11=
EXTT12=
EXTT13=
EXTT14=
EXTT15=
EXTT16=
EXTT17=
EXTT18=
EXTT19=
PLAYORDER=
